<svg width="468" height="215" viewBox="0 0 468 215" fill="none" xmlns="http://www.w3.org/2000/svg">
<rect width="467" height="146" rx="18" fill="#435059"/>
<path d="M46.2754 43.2715C52.5462 43.4954 57.4173 43.6074 60.8887 43.6074C64.36 43.6074 69.2311 43.4954 75.502 43.2715C75.6139 43.7194 75.6699 44.0273 75.6699 44.1953C75.6699 44.3913 75.6139 44.7412 75.502 45.2451C74.2142 45.3571 73.1644 45.4831 72.3525 45.623C71.5687 45.735 70.5889 45.931 69.4131 46.2109C68.2653 46.4909 67.3835 46.8968 66.7676 47.4287C66.1517 47.9326 65.8298 48.5485 65.8018 49.2764C65.4378 57.6468 65.2559 65.4434 65.2559 72.666C68.3633 72.778 73.0664 72.834 79.3652 72.834C84.5163 72.834 89.6813 72.75 94.8604 72.582C94.7484 62.168 94.6084 54.3994 94.4404 49.2764C94.4124 48.5485 94.0905 47.9326 93.4746 47.4287C92.8587 46.8968 91.9629 46.4909 90.7871 46.2109C89.6113 45.931 88.6175 45.735 87.8057 45.623C87.0218 45.4831 85.986 45.3571 84.6982 45.2451C84.5863 44.7412 84.5303 44.3913 84.5303 44.1953C84.5303 44.0273 84.5863 43.7194 84.6982 43.2715C91.0251 43.4954 95.8962 43.6074 99.3115 43.6074C102.755 43.6074 107.64 43.4954 113.967 43.2715C114.079 43.7194 114.135 44.0273 114.135 44.1953C114.135 44.3913 114.079 44.7412 113.967 45.2451C112.679 45.3571 111.629 45.4831 110.817 45.623C110.034 45.735 109.054 45.931 107.878 46.2109C106.702 46.4909 105.806 46.8968 105.19 47.4287C104.575 47.9326 104.253 48.5485 104.225 49.2764C103.945 56.2471 103.805 64.5895 103.805 74.3037C103.805 83.9619 103.945 92.2764 104.225 99.2471C104.253 99.9749 104.575 100.605 105.19 101.137C105.806 101.641 106.702 102.033 107.878 102.312C109.054 102.592 110.034 102.802 110.817 102.942C111.629 103.054 112.679 103.166 113.967 103.278C114.079 103.726 114.135 104.104 114.135 104.412C114.135 104.636 114.079 104.916 113.967 105.252C109.208 105.084 104.323 105 99.3115 105C94.3005 105 89.4294 105.084 84.6982 105.252C84.5863 104.916 84.5303 104.636 84.5303 104.412C84.5303 103.936 84.5863 103.558 84.6982 103.278C85.986 103.166 87.0358 103.054 87.8477 102.942C88.6595 102.802 89.6533 102.592 90.8291 102.312C92.0049 102.033 92.9007 101.641 93.5166 101.137C94.1325 100.605 94.4404 99.9749 94.4404 99.2471C94.6644 89.2529 94.8044 81.6803 94.8604 76.5293C89.6813 76.3613 84.5163 76.2773 79.3652 76.2773C76.1738 76.2773 71.4707 76.3333 65.2559 76.4453C65.2559 82.4082 65.4098 90.0088 65.7178 99.2471C65.7458 99.9749 66.0677 100.605 66.6836 101.137C67.2995 101.641 68.1813 102.033 69.3291 102.312C70.5049 102.592 71.4847 102.802 72.2686 102.942C73.0804 103.054 74.1302 103.166 75.418 103.278C75.5299 103.838 75.5859 104.216 75.5859 104.412C75.5859 104.636 75.5299 104.916 75.418 105.252C70.6589 105.084 65.7878 105 60.8047 105C55.7656 105 50.8945 105.084 46.1914 105.252C46.0794 104.916 46.0234 104.636 46.0234 104.412C46.0234 103.936 46.0794 103.558 46.1914 103.278C47.4792 103.166 48.515 103.054 49.2988 102.942C50.1107 102.802 51.0905 102.592 52.2383 102.312C53.4141 102.033 54.3099 101.641 54.9258 101.137C55.5417 100.605 55.8636 99.9749 55.8916 99.2471C56.2275 90.4847 56.3955 81.6523 56.3955 72.75C56.3955 63.6797 56.2555 55.8551 55.9756 49.2764C55.9476 48.5485 55.6257 47.9326 55.0098 47.4287C54.3939 46.8968 53.498 46.4909 52.3223 46.2109C51.1745 45.931 50.1947 45.735 49.3828 45.623C48.599 45.4831 47.5632 45.3571 46.2754 45.2451C46.1634 44.7412 46.1074 44.3913 46.1074 44.1953C46.1074 43.9154 46.1634 43.6074 46.2754 43.2715ZM154.783 41.8438C156.939 41.8438 159.206 42.0677 161.586 42.5156C163.993 42.9635 166.359 43.7054 168.683 44.7412C171.034 45.749 173.274 47.0928 175.401 48.7725C177.557 50.4242 179.447 52.4538 181.07 54.8613C182.694 57.2689 183.982 60.0824 184.934 63.3018C185.913 66.5212 186.403 70.2165 186.403 74.3877C186.403 78.5869 185.927 82.3102 184.976 85.5576C184.024 88.777 182.736 91.5905 181.112 93.998C179.489 96.3776 177.599 98.3932 175.443 100.045C173.316 101.669 171.062 102.984 168.683 103.992C166.331 104.972 163.924 105.672 161.46 106.092C158.996 106.54 156.645 106.764 154.405 106.764C152.278 106.764 150.01 106.54 147.603 106.092C145.223 105.672 142.857 104.972 140.506 103.992C138.154 102.984 135.901 101.669 133.745 100.045C131.618 98.3932 129.728 96.3776 128.076 93.998C126.452 91.5905 125.151 88.777 124.171 85.5576C123.219 82.3102 122.743 78.5869 122.743 74.3877C122.743 70.0765 123.247 66.2832 124.255 63.0078C125.263 59.7044 126.592 56.849 128.244 54.4414C129.924 52.0339 131.855 50.0322 134.039 48.4365C136.251 46.8128 138.532 45.5111 140.884 44.5312C143.263 43.5514 145.643 42.8656 148.022 42.4736C150.43 42.0537 152.684 41.8438 154.783 41.8438ZM154.573 44.8672C151.942 44.8672 149.604 45.3011 147.561 46.1689C145.517 47.0368 143.725 48.2126 142.186 49.6963C140.646 51.152 139.344 52.8597 138.28 54.8193C137.216 56.751 136.349 58.8086 135.677 60.9922C135.033 63.1758 134.557 65.4154 134.249 67.7109C133.969 70.0065 133.829 72.2321 133.829 74.3877C133.829 76.4593 133.969 78.6149 134.249 80.8545C134.529 83.0941 134.991 85.3057 135.635 87.4893C136.279 89.6449 137.118 91.7025 138.154 93.6621C139.218 95.6217 140.52 97.3434 142.06 98.8271C143.599 100.311 145.391 101.501 147.435 102.396C149.506 103.264 151.886 103.698 154.573 103.698C157.205 103.698 159.542 103.278 161.586 102.438C163.63 101.571 165.421 100.409 166.961 98.9531C168.501 97.4694 169.788 95.7617 170.824 93.8301C171.888 91.8704 172.742 89.8128 173.386 87.6572C174.058 85.4736 174.534 83.248 174.813 80.9805C175.121 78.7129 175.275 76.5153 175.275 74.3877C175.275 72.2321 175.121 70.0065 174.813 67.7109C174.534 65.4154 174.058 63.1758 173.386 60.9922C172.742 58.8086 171.888 56.751 170.824 54.8193C169.76 52.8597 168.459 51.152 166.919 49.6963C165.379 48.2126 163.588 47.0368 161.544 46.1689C159.5 45.3011 157.177 44.8672 154.573 44.8672ZM195.264 43.2715C201.535 43.4954 206.406 43.6074 209.877 43.6074C213.348 43.6074 218.219 43.4954 224.49 43.2715C224.602 43.7194 224.658 44.0273 224.658 44.1953C224.658 44.3913 224.602 44.7412 224.49 45.2451C223.202 45.3571 222.153 45.4831 221.341 45.623C220.557 45.735 219.577 45.931 218.401 46.2109C217.254 46.4909 216.372 46.8968 215.756 47.4287C215.14 47.9326 214.818 48.5485 214.79 49.2764C214.426 58.7946 214.244 67.6549 214.244 75.8574C214.244 80.0846 214.398 88.945 214.706 102.438H227.682C231.797 102.159 235.478 101.557 238.726 100.633C241.973 99.709 244.674 98.5332 246.83 97.1055C249.014 95.6497 250.805 94.152 252.205 92.6123C253.633 91.0446 254.865 89.2949 255.9 87.3633C256.628 87.6432 257.104 88.0212 257.328 88.4971C256.18 90.6247 255.285 92.3464 254.641 93.6621C254.025 94.9779 253.339 96.7135 252.583 98.8691C251.855 100.997 251.379 103.04 251.155 105H214.706C207.119 105 200.611 105.084 195.18 105.252C195.068 104.916 195.012 104.636 195.012 104.412C195.012 104.216 195.068 103.838 195.18 103.278C196.467 103.166 197.503 103.054 198.287 102.942C199.099 102.802 200.079 102.592 201.227 102.312C202.402 102.033 203.298 101.641 203.914 101.137C204.53 100.605 204.852 99.9749 204.88 99.2471C205.216 90.4847 205.384 81.6523 205.384 72.75C205.384 63.6797 205.244 55.8551 204.964 49.2764C204.936 48.5485 204.614 47.9326 203.998 47.4287C203.382 46.8968 202.486 46.4909 201.311 46.2109C200.163 45.931 199.183 45.735 198.371 45.623C197.587 45.4831 196.551 45.3571 195.264 45.2451C195.152 44.7412 195.096 44.3913 195.096 44.1953C195.096 43.9154 195.152 43.6074 195.264 43.2715ZM262.367 43.2715C268.638 43.4954 273.509 43.6074 276.98 43.6074C280.452 43.6074 285.323 43.4954 291.594 43.2715C291.706 43.7194 291.762 44.0273 291.762 44.1953C291.762 44.5033 291.706 44.8532 291.594 45.2451C290.306 45.3571 289.256 45.4831 288.444 45.623C287.66 45.735 286.681 45.931 285.505 46.2109C284.357 46.4909 283.475 46.8968 282.859 47.4287C282.243 47.9326 281.922 48.5485 281.894 49.2764C281.53 58.7946 281.348 67.6549 281.348 75.8574C281.348 81.8483 281.502 89.6449 281.81 99.2471C281.838 99.9749 282.16 100.605 282.775 101.137C283.391 101.641 284.273 102.033 285.421 102.312C286.597 102.592 287.576 102.802 288.36 102.942C289.172 103.054 290.222 103.166 291.51 103.278C291.622 103.614 291.678 103.992 291.678 104.412C291.678 104.636 291.622 104.916 291.51 105.252C286.751 105.084 281.88 105 276.896 105C271.857 105 266.986 105.084 262.283 105.252C262.171 104.916 262.115 104.636 262.115 104.412C262.115 103.936 262.171 103.558 262.283 103.278C263.123 103.194 263.795 103.124 264.299 103.068C264.803 103.012 265.489 102.914 266.356 102.774C267.252 102.634 267.966 102.48 268.498 102.312C269.058 102.117 269.632 101.879 270.22 101.599C270.808 101.319 271.242 100.983 271.521 100.591C271.829 100.199 271.983 99.751 271.983 99.2471C272.319 90.4847 272.487 81.6523 272.487 72.75C272.487 63.6797 272.347 55.8551 272.067 49.2764C272.039 48.5485 271.717 47.9326 271.102 47.4287C270.486 46.8968 269.59 46.4909 268.414 46.2109C267.266 45.931 266.286 45.735 265.475 45.623C264.691 45.4831 263.655 45.3571 262.367 45.2451C262.255 44.7412 262.199 44.3913 262.199 44.1953C262.199 43.9154 262.255 43.6074 262.367 43.2715ZM301.42 43.2715C304.471 43.3835 308.279 43.4674 312.842 43.5234C317.405 43.5794 322.766 43.6074 328.925 43.6074C335.084 43.6074 340.445 43.5794 345.008 43.5234C349.599 43.4674 353.434 43.3835 356.514 43.2715C356.682 44.4753 356.892 45.637 357.144 46.7568C357.396 47.8486 357.815 49.0664 358.403 50.4102L359.663 53.2656L362.729 59.2285C362.533 59.6764 362.043 60.0544 361.259 60.3623C360.307 58.5986 359.145 56.9189 357.773 55.3232C356.402 53.7275 354.652 52.2858 352.524 50.998C350.425 49.7103 347.849 48.6325 344.798 47.7646C341.774 46.8968 338.121 46.3089 333.838 46.001C333.698 49.5003 333.586 53.4616 333.502 57.8848C333.446 62.2799 333.418 67.179 333.418 72.582C333.418 78.013 333.446 82.9401 333.502 87.3633C333.586 91.7865 333.698 95.7477 333.838 99.2471C333.866 99.9189 334.132 100.493 334.636 100.969C335.14 101.417 335.826 101.795 336.693 102.103C337.589 102.41 338.611 102.662 339.759 102.858C340.935 103.026 342.194 103.166 343.538 103.278C343.65 103.754 343.706 104.132 343.706 104.412C343.706 104.664 343.65 104.944 343.538 105.252C338.835 105.084 333.964 105 328.925 105C323.914 105 319.043 105.084 314.312 105.252C314.2 104.944 314.144 104.664 314.144 104.412C314.144 104.132 314.2 103.754 314.312 103.278L316.327 103.068C317.055 102.984 317.867 102.872 318.763 102.732C319.659 102.564 320.484 102.34 321.24 102.061C322.024 101.781 322.682 101.431 323.214 101.011C323.746 100.591 324.012 100.073 324.012 99.457V99.2471C324.152 94.124 324.264 89.3509 324.348 84.9277C324.432 80.5046 324.474 76.3893 324.474 72.582C324.474 68.8027 324.432 64.7155 324.348 60.3203C324.264 55.8971 324.152 51.124 324.012 46.001C319.98 46.2249 316.467 46.7708 313.472 47.6387C310.504 48.4785 307.929 49.5423 305.745 50.8301C303.562 52.0898 301.742 53.5456 300.286 55.1973C298.83 56.821 297.627 58.5426 296.675 60.3623C295.891 60.0544 295.401 59.6764 295.205 59.2285L297.095 55.6592L297.977 53.8535C298.34 53.0977 298.704 52.3278 299.068 51.5439C299.432 50.7601 299.768 49.9482 300.076 49.1084C300.412 48.2406 300.692 47.3307 300.916 46.3789C301.14 45.3991 301.308 44.3633 301.42 43.2715ZM363.316 43.2715C369.643 43.4954 374.724 43.6074 378.56 43.6074C383.795 43.6074 388.526 43.4954 392.753 43.2715C392.865 43.7194 392.921 44.0273 392.921 44.1953C392.921 44.5033 392.865 44.8532 392.753 45.2451C389.478 45.3851 387.07 45.679 385.53 46.127C384.019 46.5749 383.263 47.3027 383.263 48.3105C383.263 48.6745 383.501 49.3044 383.977 50.2002L396.868 73.3379H397.204L411.313 49.8643C411.649 49.3044 411.817 48.7305 411.817 48.1426C411.817 47.2747 411.257 46.6449 410.138 46.2529C409.046 45.833 407.394 45.4971 405.183 45.2451C405.071 44.6292 405.015 44.2513 405.015 44.1113C405.015 43.8874 405.071 43.6074 405.183 43.2715C408.794 43.4395 412.069 43.5234 415.009 43.5234C418.172 43.5234 421.35 43.4395 424.541 43.2715C424.653 43.6074 424.709 43.8874 424.709 44.1113C424.709 44.5592 424.653 44.9372 424.541 45.2451C422.497 45.4411 420.776 45.861 419.376 46.5049C417.976 47.1488 416.772 48.2686 415.765 49.8643L398.338 77.999C398.338 84.0459 398.478 91.1286 398.758 99.2471C398.786 99.9749 399.108 100.605 399.724 101.137C400.34 101.641 401.221 102.033 402.369 102.312C403.545 102.592 404.525 102.802 405.309 102.942C406.12 103.054 407.17 103.166 408.458 103.278C408.57 103.614 408.626 103.992 408.626 104.412C408.626 104.636 408.57 104.916 408.458 105.252C403.755 105.084 398.884 105 393.845 105C388.834 105 383.963 105.084 379.231 105.252C379.119 104.916 379.063 104.636 379.063 104.412C379.063 103.936 379.119 103.558 379.231 103.278C380.519 103.166 381.555 103.054 382.339 102.942C383.151 102.802 384.131 102.592 385.278 102.312C386.454 102.033 387.35 101.641 387.966 101.137C388.582 100.605 388.904 99.9749 388.932 99.2471C389.212 92.2204 389.394 85.1377 389.478 77.999L373.059 49.2764C371.967 47.9046 370.623 46.9388 369.027 46.3789C367.432 45.819 365.528 45.4411 363.316 45.2451C363.204 44.7412 363.148 44.3913 363.148 44.1953C363.148 43.9154 363.204 43.6074 363.316 43.2715Z" fill="white"/>
<path d="M11.745 202.54C9.495 202.54 7.53 202.075 5.85 201.145C4.17 200.185 2.775 198.865 1.665 197.185L4.275 195.025C5.235 196.435 6.315 197.53 7.515 198.31C8.715 199.06 10.125 199.435 11.745 199.435C16.005 199.435 18.135 197.44 18.135 193.45C18.135 191.83 17.745 190.6 16.965 189.76C16.185 188.92 14.835 188.26 12.915 187.78L10.575 187.195C7.815 186.505 5.775 185.5 4.455 184.18C3.165 182.83 2.52 180.94 2.52 178.51C2.52 175.72 3.39 173.62 5.13 172.21C6.87 170.77 9.18 170.05 12.06 170.05C14.25 170.05 16.08 170.455 17.55 171.265C19.05 172.075 20.355 173.35 21.465 175.09L18.81 176.98C18 175.72 17.07 174.775 16.02 174.145C15 173.485 13.635 173.155 11.925 173.155C10.005 173.155 8.535 173.575 7.515 174.415C6.525 175.255 6.03 176.62 6.03 178.51C6.03 180.04 6.435 181.195 7.245 181.975C8.085 182.755 9.42 183.37 11.25 183.82L13.59 184.405C15.06 184.765 16.305 185.2 17.325 185.71C18.345 186.19 19.17 186.79 19.8 187.51C20.46 188.23 20.925 189.085 21.195 190.075C21.495 191.035 21.645 192.16 21.645 193.45C21.645 196.42 20.76 198.685 18.99 200.245C17.25 201.775 14.835 202.54 11.745 202.54ZM45.6476 202.54C41.8376 202.54 38.8826 201.235 36.7826 198.625C34.6826 196.015 33.6326 191.905 33.6326 186.295C33.6326 180.685 34.6826 176.575 36.7826 173.965C38.8826 171.355 41.8376 170.05 45.6476 170.05C49.4576 170.05 52.4126 171.355 54.5126 173.965C56.6126 176.575 57.6626 180.685 57.6626 186.295C57.6626 191.905 56.6126 196.015 54.5126 198.625C52.4126 201.235 49.4576 202.54 45.6476 202.54ZM45.6476 199.345C48.2576 199.345 50.2676 198.49 51.6776 196.78C53.0876 195.04 53.7926 192.715 53.7926 189.805V182.785C53.7926 179.875 53.0876 177.565 51.6776 175.855C50.2676 174.115 48.2576 173.245 45.6476 173.245C43.0376 173.245 41.0276 174.115 39.6176 175.855C38.2076 177.565 37.5026 179.875 37.5026 182.785V189.805C37.5026 192.715 38.2076 195.04 39.6176 196.78C41.0276 198.49 43.0376 199.345 45.6476 199.345ZM81.3639 202.54C79.5939 202.54 78.0039 202.225 76.5939 201.595C75.1839 200.935 73.9839 199.945 72.9939 198.625C72.0339 197.305 71.2839 195.625 70.7439 193.585C70.2339 191.515 69.9789 189.085 69.9789 186.295C69.9789 183.505 70.2339 181.09 70.7439 179.05C71.2839 176.98 72.0339 175.285 72.9939 173.965C73.9839 172.645 75.1839 171.67 76.5939 171.04C78.0039 170.38 79.5939 170.05 81.3639 170.05C83.9439 170.05 86.0139 170.605 87.5739 171.715C89.1339 172.795 90.3639 174.46 91.2639 176.71L88.3839 178.465C87.8139 176.755 86.9889 175.465 85.9089 174.595C84.8589 173.695 83.3439 173.245 81.3639 173.245C78.9639 173.245 77.1039 174.115 75.7839 175.855C74.4939 177.565 73.8489 179.875 73.8489 182.785V189.805C73.8489 192.715 74.4939 195.04 75.7839 196.78C77.1039 198.49 78.9639 199.345 81.3639 199.345C83.4039 199.345 84.9789 198.88 86.0889 197.95C87.1989 196.99 88.0389 195.61 88.6089 193.81L91.4889 195.61C90.5889 197.86 89.3139 199.585 87.6639 200.785C86.0439 201.955 83.9439 202.54 81.3639 202.54ZM102.898 202V199.03H106.858V173.56H102.898V170.59H114.418V173.56H110.458V199.03H114.418V202H102.898ZM145.887 202L143.097 192.595H131.802L129.012 202H125.412L135.222 170.59H139.722L149.577 202H145.887ZM138.642 177.7L137.652 173.785H137.202L136.212 177.7L132.657 189.625H142.287L138.642 177.7ZM161.912 202V170.59H165.512V198.85H177.437V202H161.912ZM206.104 190.165V186.475H216.904V190.165H206.104ZM256.2 202.54C253.95 202.54 251.985 202.075 250.305 201.145C248.625 200.185 247.23 198.865 246.12 197.185L248.73 195.025C249.69 196.435 250.77 197.53 251.97 198.31C253.17 199.06 254.58 199.435 256.2 199.435C260.46 199.435 262.59 197.44 262.59 193.45C262.59 191.83 262.2 190.6 261.42 189.76C260.64 188.92 259.29 188.26 257.37 187.78L255.03 187.195C252.27 186.505 250.23 185.5 248.91 184.18C247.62 182.83 246.975 180.94 246.975 178.51C246.975 175.72 247.845 173.62 249.585 172.21C251.325 170.77 253.635 170.05 256.515 170.05C258.705 170.05 260.535 170.455 262.005 171.265C263.505 172.075 264.81 173.35 265.92 175.09L263.265 176.98C262.455 175.72 261.525 174.775 260.475 174.145C259.455 173.485 258.09 173.155 256.38 173.155C254.46 173.155 252.99 173.575 251.97 174.415C250.98 175.255 250.485 176.62 250.485 178.51C250.485 180.04 250.89 181.195 251.7 181.975C252.54 182.755 253.875 183.37 255.705 183.82L258.045 184.405C259.515 184.765 260.76 185.2 261.78 185.71C262.8 186.19 263.625 186.79 264.255 187.51C264.915 188.23 265.38 189.085 265.65 190.075C265.95 191.035 266.1 192.16 266.1 193.45C266.1 196.42 265.215 198.685 263.445 200.245C261.705 201.775 259.29 202.54 256.2 202.54ZM282.858 170.59V190.93C282.858 192.34 282.963 193.57 283.173 194.62C283.413 195.67 283.788 196.555 284.298 197.275C284.808 197.965 285.483 198.49 286.323 198.85C287.193 199.18 288.243 199.345 289.473 199.345C291.933 199.345 293.643 198.655 294.603 197.275C295.593 195.865 296.088 193.75 296.088 190.93V170.59H299.688V190.21C299.688 192.31 299.508 194.14 299.148 195.7C298.788 197.23 298.203 198.505 297.393 199.525C296.613 200.545 295.563 201.31 294.243 201.82C292.953 202.3 291.363 202.54 289.473 202.54C287.583 202.54 285.978 202.3 284.658 201.82C283.368 201.31 282.318 200.545 281.508 199.525C280.728 198.505 280.158 197.23 279.798 195.7C279.438 194.14 279.258 192.31 279.258 190.21V170.59H282.858ZM314.643 202V170.59H326.208C331.398 170.59 333.993 173.575 333.993 179.545C333.993 185.515 331.398 188.5 326.208 188.5H318.243V202H314.643ZM318.243 185.35H326.118C328.788 185.35 330.123 183.91 330.123 181.03V178.06C330.123 175.18 328.788 173.74 326.118 173.74H318.243V185.35ZM346.946 202V170.59H358.511C363.701 170.59 366.296 173.575 366.296 179.545C366.296 185.515 363.701 188.5 358.511 188.5H350.546V202H346.946ZM350.546 185.35H358.421C361.091 185.35 362.426 183.91 362.426 181.03V178.06C362.426 175.18 361.091 173.74 358.421 173.74H350.546V185.35ZM389.869 202.54C386.059 202.54 383.104 201.235 381.004 198.625C378.904 196.015 377.854 191.905 377.854 186.295C377.854 180.685 378.904 176.575 381.004 173.965C383.104 171.355 386.059 170.05 389.869 170.05C393.679 170.05 396.634 171.355 398.734 173.965C400.834 176.575 401.884 180.685 401.884 186.295C401.884 191.905 400.834 196.015 398.734 198.625C396.634 201.235 393.679 202.54 389.869 202.54ZM389.869 199.345C392.479 199.345 394.489 198.49 395.899 196.78C397.309 195.04 398.014 192.715 398.014 189.805V182.785C398.014 179.875 397.309 177.565 395.899 175.855C394.489 174.115 392.479 173.245 389.869 173.245C387.259 173.245 385.249 174.115 383.839 175.855C382.429 177.565 381.724 179.875 381.724 182.785V189.805C381.724 192.715 382.429 195.04 383.839 196.78C385.249 198.49 387.259 199.345 389.869 199.345ZM419.196 202H415.596V170.59H427.161C432.351 170.59 434.946 173.575 434.946 179.545C434.946 184.585 433.086 187.495 429.366 188.275L435.711 202H431.661L425.766 188.5H419.196V202ZM427.071 185.44C429.741 185.44 431.076 184 431.076 181.12V178.06C431.076 175.18 429.741 173.74 427.071 173.74H419.196V185.44H427.071ZM458.189 173.74V202H454.589V173.74H445.724V170.59H467.054V173.74H458.189Z" fill="#435059"/>
</svg>
