<svg width="107" height="35" viewBox="0 0 107 35" fill="none" xmlns="http://www.w3.org/2000/svg">
<path d="M39.136 0.303999V34H30.928V13.792L23.392 34H16.768L9.184 13.744V34H0.976V0.303999H10.672L20.128 23.632L29.488 0.303999H39.136ZM43.4065 20.56C43.4065 17.808 43.9185 15.392 44.9425 13.312C45.9985 11.232 47.4225 9.632 49.2145 8.512C51.0065 7.392 53.0065 6.832 55.2145 6.832C57.1025 6.832 58.7505 7.216 60.1585 7.984C61.5985 8.752 62.7025 9.76 63.4705 11.008V7.216H71.6785V34H63.4705V30.208C62.6705 31.456 61.5505 32.464 60.1105 33.232C58.7025 34 57.0545 34.384 55.1665 34.384C52.9905 34.384 51.0065 33.824 49.2145 32.704C47.4225 31.552 45.9985 29.936 44.9425 27.856C43.9185 25.744 43.4065 23.312 43.4065 20.56ZM63.4705 20.608C63.4705 18.56 62.8945 16.944 61.7425 15.76C60.6225 14.576 59.2465 13.984 57.6145 13.984C55.9825 13.984 54.5905 14.576 53.4385 15.76C52.3185 16.912 51.7585 18.512 51.7585 20.56C51.7585 22.608 52.3185 24.24 53.4385 25.456C54.5905 26.64 55.9825 27.232 57.6145 27.232C59.2465 27.232 60.6225 26.64 61.7425 25.456C62.8945 24.272 63.4705 22.656 63.4705 20.608ZM85.8246 11.68C86.7846 10.208 87.9846 9.056 89.4246 8.224C90.8646 7.36 92.4646 6.928 94.2246 6.928V15.616H91.9686C89.9206 15.616 88.3846 16.064 87.3606 16.96C86.3366 17.824 85.8246 19.36 85.8246 21.568V34H77.6166V7.216H85.8246V11.68Z" fill="white"/>
<path d="M101.988 34.384C100.548 34.384 99.3639 33.968 98.4359 33.136C97.5399 32.272 97.0919 31.216 97.0919 29.968C97.0919 28.688 97.5399 27.616 98.4359 26.752C99.3639 25.888 100.548 25.456 101.988 25.456C103.396 25.456 104.548 25.888 105.444 26.752C106.372 27.616 106.836 28.688 106.836 29.968C106.836 31.216 106.372 32.272 105.444 33.136C104.548 33.968 103.396 34.384 101.988 34.384Z" fill="#F1875E"/>
</svg>
