<svg width="20" height="20" viewBox="0 0 20 20" fill="none" xmlns="http://www.w3.org/2000/svg">
<path d="M18 19.6677H2C1.46957 19.6677 0.960859 19.457 0.585786 19.0819C0.210714 18.7069 0 18.1982 0 17.6677V6.71672C0.0166235 6.38616 0.113779 6.06468 0.283011 5.78024C0.452244 5.49581 0.688425 5.25704 0.971 5.08472L8.971 0.284719C9.28172 0.0984101 9.63721 0 9.9995 0C10.3618 0 10.7173 0.0984101 11.028 0.284719L19.028 5.08472C19.629 5.44772 19.998 6.09772 20 6.79972V17.6677C20 18.1982 19.7893 18.7069 19.4142 19.0819C19.0391 19.457 18.5304 19.6677 18 19.6677ZM2 7.53572V17.6677H18V7.53572L10 12.8687L2 7.53572ZM10 1.99972L3.316 6.00972L10 10.4657L16.683 6.00972L10 1.99972Z" fill="#F1875E"/>
</svg>
